<mxfile host="app.diagrams.net" modified="2024-05-09T04:21:32.610Z" agent="Mozilla/5.0 (Macintosh; Intel Mac OS X 10_15_7) AppleWebKit/537.36 (KHTML, like Gecko) Chrome/124.0.0.0 Safari/537.36" etag="GpjEUhX3lWuQElmJlAHZ" version="24.3.1" type="device">
  <diagram name="Page-1" id="J0CWGOKQlPMZKvl4iXRZ">
    <mxGraphModel dx="1084" dy="577" grid="1" gridSize="10" guides="1" tooltips="1" connect="1" arrows="1" fold="1" page="1" pageScale="1" pageWidth="850" pageHeight="1100" math="0" shadow="0">
      <root>
        <mxCell id="0" />
        <mxCell id="1" parent="0" />
        <mxCell id="wxS6ppPWxhe0wEHpGkt0-1" value="Service" style="rounded=0;whiteSpace=wrap;html=1;" parent="1" vertex="1">
          <mxGeometry x="50" y="120" width="120" height="60" as="geometry" />
        </mxCell>
        <mxCell id="wxS6ppPWxhe0wEHpGkt0-2" value="Payment" style="rounded=0;whiteSpace=wrap;html=1;" parent="1" vertex="1">
          <mxGeometry x="285" y="330" width="120" height="60" as="geometry" />
        </mxCell>
        <mxCell id="wxS6ppPWxhe0wEHpGkt0-3" value="Contract" style="rounded=0;whiteSpace=wrap;html=1;" parent="1" vertex="1">
          <mxGeometry x="290" y="120" width="120" height="60" as="geometry" />
        </mxCell>
        <mxCell id="wxS6ppPWxhe0wEHpGkt0-4" value="Client" style="rounded=0;whiteSpace=wrap;html=1;" parent="1" vertex="1">
          <mxGeometry x="530" y="120" width="120" height="60" as="geometry" />
        </mxCell>
        <mxCell id="wxS6ppPWxhe0wEHpGkt0-5" value="Payment Methods" style="rounded=0;whiteSpace=wrap;html=1;" parent="1" vertex="1">
          <mxGeometry x="47.5" y="320" width="120" height="60" as="geometry" />
        </mxCell>
        <mxCell id="wxS6ppPWxhe0wEHpGkt0-6" value="" style="swimlane;startSize=0;" parent="1" vertex="1">
          <mxGeometry x="37.5" y="310" width="140" height="80" as="geometry" />
        </mxCell>
        <mxCell id="wxS6ppPWxhe0wEHpGkt0-7" value="" style="endArrow=none;html=1;rounded=0;entryX=0.5;entryY=1;entryDx=0;entryDy=0;" parent="1" target="wxS6ppPWxhe0wEHpGkt0-8" edge="1">
          <mxGeometry width="50" height="50" relative="1" as="geometry">
            <mxPoint x="70" y="120" as="sourcePoint" />
            <mxPoint x="70" y="60" as="targetPoint" />
          </mxGeometry>
        </mxCell>
        <mxCell id="wxS6ppPWxhe0wEHpGkt0-8" value="" style="ellipse;whiteSpace=wrap;html=1;aspect=fixed;" parent="1" vertex="1">
          <mxGeometry x="60" y="30" width="20" height="20" as="geometry" />
        </mxCell>
        <mxCell id="wxS6ppPWxhe0wEHpGkt0-9" value="" style="endArrow=none;html=1;rounded=0;entryX=0.5;entryY=1;entryDx=0;entryDy=0;" parent="1" target="wxS6ppPWxhe0wEHpGkt0-10" edge="1">
          <mxGeometry width="50" height="50" relative="1" as="geometry">
            <mxPoint x="90" y="120" as="sourcePoint" />
            <mxPoint x="90" y="80" as="targetPoint" />
          </mxGeometry>
        </mxCell>
        <mxCell id="wxS6ppPWxhe0wEHpGkt0-10" value="" style="ellipse;whiteSpace=wrap;html=1;aspect=fixed;" parent="1" vertex="1">
          <mxGeometry x="80" y="50" width="20" height="20" as="geometry" />
        </mxCell>
        <mxCell id="wxS6ppPWxhe0wEHpGkt0-15" value="&lt;u&gt;Sid&lt;/u&gt;" style="text;html=1;align=center;verticalAlign=middle;whiteSpace=wrap;rounded=0;" parent="1" vertex="1">
          <mxGeometry x="70" y="30" width="50" height="20" as="geometry" />
        </mxCell>
        <mxCell id="wxS6ppPWxhe0wEHpGkt0-18" value="" style="endArrow=none;html=1;rounded=0;entryX=0.5;entryY=1;entryDx=0;entryDy=0;" parent="1" target="wxS6ppPWxhe0wEHpGkt0-19" edge="1">
          <mxGeometry width="50" height="50" relative="1" as="geometry">
            <mxPoint x="330" y="120" as="sourcePoint" />
            <mxPoint x="330" y="80" as="targetPoint" />
          </mxGeometry>
        </mxCell>
        <mxCell id="wxS6ppPWxhe0wEHpGkt0-19" value="" style="ellipse;whiteSpace=wrap;html=1;aspect=fixed;" parent="1" vertex="1">
          <mxGeometry x="320" y="50" width="20" height="20" as="geometry" />
        </mxCell>
        <mxCell id="wxS6ppPWxhe0wEHpGkt0-20" value="" style="endArrow=none;html=1;rounded=0;entryX=0.5;entryY=1;entryDx=0;entryDy=0;" parent="1" target="wxS6ppPWxhe0wEHpGkt0-21" edge="1">
          <mxGeometry width="50" height="50" relative="1" as="geometry">
            <mxPoint x="350" y="120" as="sourcePoint" />
            <mxPoint x="350" y="100" as="targetPoint" />
          </mxGeometry>
        </mxCell>
        <mxCell id="wxS6ppPWxhe0wEHpGkt0-21" value="" style="ellipse;whiteSpace=wrap;html=1;aspect=fixed;" parent="1" vertex="1">
          <mxGeometry x="340" y="70" width="20" height="20" as="geometry" />
        </mxCell>
        <mxCell id="wxS6ppPWxhe0wEHpGkt0-25" value="" style="endArrow=none;html=1;rounded=0;entryX=0.5;entryY=1;entryDx=0;entryDy=0;" parent="1" target="wxS6ppPWxhe0wEHpGkt0-26" edge="1">
          <mxGeometry width="50" height="50" relative="1" as="geometry">
            <mxPoint x="550" y="120" as="sourcePoint" />
            <mxPoint x="550" y="60" as="targetPoint" />
          </mxGeometry>
        </mxCell>
        <mxCell id="wxS6ppPWxhe0wEHpGkt0-26" value="" style="ellipse;whiteSpace=wrap;html=1;aspect=fixed;" parent="1" vertex="1">
          <mxGeometry x="540" y="30" width="20" height="20" as="geometry" />
        </mxCell>
        <mxCell id="wxS6ppPWxhe0wEHpGkt0-27" value="" style="endArrow=none;html=1;rounded=0;entryX=0.5;entryY=1;entryDx=0;entryDy=0;" parent="1" target="wxS6ppPWxhe0wEHpGkt0-28" edge="1">
          <mxGeometry width="50" height="50" relative="1" as="geometry">
            <mxPoint x="570" y="120" as="sourcePoint" />
            <mxPoint x="570" y="80" as="targetPoint" />
          </mxGeometry>
        </mxCell>
        <mxCell id="wxS6ppPWxhe0wEHpGkt0-28" value="" style="ellipse;whiteSpace=wrap;html=1;aspect=fixed;" parent="1" vertex="1">
          <mxGeometry x="560" y="50" width="20" height="20" as="geometry" />
        </mxCell>
        <mxCell id="wxS6ppPWxhe0wEHpGkt0-29" value="" style="endArrow=none;html=1;rounded=0;entryX=0.5;entryY=1;entryDx=0;entryDy=0;" parent="1" target="wxS6ppPWxhe0wEHpGkt0-30" edge="1">
          <mxGeometry width="50" height="50" relative="1" as="geometry">
            <mxPoint x="590" y="120" as="sourcePoint" />
            <mxPoint x="590" y="100" as="targetPoint" />
          </mxGeometry>
        </mxCell>
        <mxCell id="wxS6ppPWxhe0wEHpGkt0-30" value="" style="ellipse;whiteSpace=wrap;html=1;aspect=fixed;" parent="1" vertex="1">
          <mxGeometry x="580" y="70" width="20" height="20" as="geometry" />
        </mxCell>
        <mxCell id="wxS6ppPWxhe0wEHpGkt0-31" value="" style="endArrow=none;html=1;rounded=0;" parent="1" edge="1">
          <mxGeometry width="50" height="50" relative="1" as="geometry">
            <mxPoint x="610" y="120" as="sourcePoint" />
            <mxPoint x="610" y="110" as="targetPoint" />
          </mxGeometry>
        </mxCell>
        <mxCell id="wxS6ppPWxhe0wEHpGkt0-32" value="" style="ellipse;whiteSpace=wrap;html=1;aspect=fixed;" parent="1" vertex="1">
          <mxGeometry x="600" y="90" width="20" height="20" as="geometry" />
        </mxCell>
        <mxCell id="wxS6ppPWxhe0wEHpGkt0-33" value="&lt;u&gt;ClientCode&lt;/u&gt;" style="text;html=1;align=center;verticalAlign=middle;whiteSpace=wrap;rounded=0;" parent="1" vertex="1">
          <mxGeometry x="570" y="30" width="50" height="20" as="geometry" />
        </mxCell>
        <mxCell id="wxS6ppPWxhe0wEHpGkt0-34" value="" style="endArrow=none;html=1;rounded=0;entryX=0.5;entryY=1;entryDx=0;entryDy=0;" parent="1" target="wxS6ppPWxhe0wEHpGkt0-35" edge="1">
          <mxGeometry width="50" height="50" relative="1" as="geometry">
            <mxPoint x="67.5" y="310" as="sourcePoint" />
            <mxPoint x="67.5" y="250" as="targetPoint" />
          </mxGeometry>
        </mxCell>
        <mxCell id="wxS6ppPWxhe0wEHpGkt0-35" value="" style="ellipse;whiteSpace=wrap;html=1;aspect=fixed;" parent="1" vertex="1">
          <mxGeometry x="57.5" y="220" width="20" height="20" as="geometry" />
        </mxCell>
        <mxCell id="wxS6ppPWxhe0wEHpGkt0-36" value="" style="endArrow=none;html=1;rounded=0;entryX=0.5;entryY=1;entryDx=0;entryDy=0;" parent="1" target="wxS6ppPWxhe0wEHpGkt0-37" edge="1">
          <mxGeometry width="50" height="50" relative="1" as="geometry">
            <mxPoint x="87.5" y="310" as="sourcePoint" />
            <mxPoint x="87.5" y="270" as="targetPoint" />
          </mxGeometry>
        </mxCell>
        <mxCell id="wxS6ppPWxhe0wEHpGkt0-37" value="" style="ellipse;whiteSpace=wrap;html=1;aspect=fixed;" parent="1" vertex="1">
          <mxGeometry x="77.5" y="240" width="20" height="20" as="geometry" />
        </mxCell>
        <mxCell id="wxS6ppPWxhe0wEHpGkt0-42" value="&lt;u&gt;PaymentMethodID&lt;/u&gt;" style="text;html=1;align=center;verticalAlign=middle;whiteSpace=wrap;rounded=0;" parent="1" vertex="1">
          <mxGeometry x="107.5" y="220" width="50" height="20" as="geometry" />
        </mxCell>
        <mxCell id="wxS6ppPWxhe0wEHpGkt0-45" value="" style="endArrow=none;html=1;rounded=0;entryX=0.5;entryY=1;entryDx=0;entryDy=0;" parent="1" target="wxS6ppPWxhe0wEHpGkt0-46" edge="1">
          <mxGeometry width="50" height="50" relative="1" as="geometry">
            <mxPoint x="320" y="330" as="sourcePoint" />
            <mxPoint x="320" y="290" as="targetPoint" />
          </mxGeometry>
        </mxCell>
        <mxCell id="wxS6ppPWxhe0wEHpGkt0-46" value="" style="ellipse;whiteSpace=wrap;html=1;aspect=fixed;" parent="1" vertex="1">
          <mxGeometry x="310" y="260" width="20" height="20" as="geometry" />
        </mxCell>
        <mxCell id="wxS6ppPWxhe0wEHpGkt0-47" value="" style="endArrow=none;html=1;rounded=0;entryX=0.5;entryY=1;entryDx=0;entryDy=0;" parent="1" target="wxS6ppPWxhe0wEHpGkt0-48" edge="1">
          <mxGeometry width="50" height="50" relative="1" as="geometry">
            <mxPoint x="340" y="330" as="sourcePoint" />
            <mxPoint x="340" y="310" as="targetPoint" />
          </mxGeometry>
        </mxCell>
        <mxCell id="wxS6ppPWxhe0wEHpGkt0-48" value="" style="ellipse;whiteSpace=wrap;html=1;aspect=fixed;" parent="1" vertex="1">
          <mxGeometry x="330" y="280" width="20" height="20" as="geometry" />
        </mxCell>
        <mxCell id="wxS6ppPWxhe0wEHpGkt0-52" value="Title" style="text;html=1;align=center;verticalAlign=middle;whiteSpace=wrap;rounded=0;" parent="1" vertex="1">
          <mxGeometry x="90" y="50" width="50" height="20" as="geometry" />
        </mxCell>
        <mxCell id="wxS6ppPWxhe0wEHpGkt0-54" value="StartDate" style="text;html=1;align=center;verticalAlign=middle;resizable=0;points=[];autosize=1;strokeColor=none;fillColor=none;" parent="1" vertex="1">
          <mxGeometry x="335" y="45" width="70" height="30" as="geometry" />
        </mxCell>
        <mxCell id="wxS6ppPWxhe0wEHpGkt0-55" value="EndDate" style="text;html=1;align=center;verticalAlign=middle;resizable=0;points=[];autosize=1;strokeColor=none;fillColor=none;" parent="1" vertex="1">
          <mxGeometry x="350" y="65" width="70" height="30" as="geometry" />
        </mxCell>
        <mxCell id="wxS6ppPWxhe0wEHpGkt0-57" value="" style="ellipse;whiteSpace=wrap;html=1;aspect=fixed;" parent="1" vertex="1">
          <mxGeometry x="360" y="90" width="20" height="20" as="geometry" />
        </mxCell>
        <mxCell id="wxS6ppPWxhe0wEHpGkt0-58" value="" style="endArrow=none;html=1;rounded=0;entryX=0.5;entryY=1;entryDx=0;entryDy=0;exitX=0.664;exitY=-0.003;exitDx=0;exitDy=0;exitPerimeter=0;" parent="1" source="wxS6ppPWxhe0wEHpGkt0-3" target="wxS6ppPWxhe0wEHpGkt0-57" edge="1">
          <mxGeometry width="50" height="50" relative="1" as="geometry">
            <mxPoint x="360" y="130" as="sourcePoint" />
            <mxPoint x="360" y="100" as="targetPoint" />
          </mxGeometry>
        </mxCell>
        <mxCell id="wxS6ppPWxhe0wEHpGkt0-59" value="WeeklyFee" style="text;html=1;align=center;verticalAlign=middle;resizable=0;points=[];autosize=1;strokeColor=none;fillColor=none;" parent="1" vertex="1">
          <mxGeometry x="370" y="85" width="80" height="30" as="geometry" />
        </mxCell>
        <mxCell id="wxS6ppPWxhe0wEHpGkt0-60" value="CompanyName" style="text;html=1;align=center;verticalAlign=middle;resizable=0;points=[];autosize=1;strokeColor=none;fillColor=none;" parent="1" vertex="1">
          <mxGeometry x="570" y="45" width="110" height="30" as="geometry" />
        </mxCell>
        <mxCell id="wxS6ppPWxhe0wEHpGkt0-61" value="Address" style="text;html=1;align=center;verticalAlign=middle;resizable=0;points=[];autosize=1;strokeColor=none;fillColor=none;" parent="1" vertex="1">
          <mxGeometry x="590" y="65" width="70" height="30" as="geometry" />
        </mxCell>
        <mxCell id="wxS6ppPWxhe0wEHpGkt0-62" value="PhoneNo" style="text;html=1;align=center;verticalAlign=middle;resizable=0;points=[];autosize=1;strokeColor=none;fillColor=none;" parent="1" vertex="1">
          <mxGeometry x="610" y="90" width="70" height="30" as="geometry" />
        </mxCell>
        <mxCell id="wxS6ppPWxhe0wEHpGkt0-63" value="Date" style="text;html=1;align=center;verticalAlign=middle;resizable=0;points=[];autosize=1;strokeColor=none;fillColor=none;" parent="1" vertex="1">
          <mxGeometry x="325" y="255" width="50" height="30" as="geometry" />
        </mxCell>
        <mxCell id="wxS6ppPWxhe0wEHpGkt0-64" value="Amount" style="text;html=1;align=center;verticalAlign=middle;resizable=0;points=[];autosize=1;strokeColor=none;fillColor=none;" parent="1" vertex="1">
          <mxGeometry x="345" y="275" width="60" height="30" as="geometry" />
        </mxCell>
        <mxCell id="wxS6ppPWxhe0wEHpGkt0-66" value="MethodName" style="text;html=1;align=center;verticalAlign=middle;resizable=0;points=[];autosize=1;strokeColor=none;fillColor=none;" parent="1" vertex="1">
          <mxGeometry x="92.5" y="240" width="100" height="30" as="geometry" />
        </mxCell>
        <mxCell id="wxS6ppPWxhe0wEHpGkt0-67" value="" style="edgeStyle=entityRelationEdgeStyle;fontSize=12;html=1;endArrow=ERzeroToMany;startArrow=ERmandOne;rounded=0;exitX=1;exitY=0.5;exitDx=0;exitDy=0;entryX=0;entryY=0.5;entryDx=0;entryDy=0;" parent="1" source="wxS6ppPWxhe0wEHpGkt0-1" target="wxS6ppPWxhe0wEHpGkt0-3" edge="1">
          <mxGeometry width="100" height="100" relative="1" as="geometry">
            <mxPoint x="170" y="370" as="sourcePoint" />
            <mxPoint x="270" y="270" as="targetPoint" />
          </mxGeometry>
        </mxCell>
        <mxCell id="YI6iL46qrL_J55TheeWR-1" value="included in" style="edgeLabel;html=1;align=center;verticalAlign=middle;resizable=0;points=[];" vertex="1" connectable="0" parent="wxS6ppPWxhe0wEHpGkt0-67">
          <mxGeometry x="-0.0167" y="-1" relative="1" as="geometry">
            <mxPoint as="offset" />
          </mxGeometry>
        </mxCell>
        <mxCell id="wxS6ppPWxhe0wEHpGkt0-68" value="" style="edgeStyle=entityRelationEdgeStyle;fontSize=12;html=1;endArrow=ERzeroToMany;startArrow=ERmandOne;rounded=0;exitX=0;exitY=0.5;exitDx=0;exitDy=0;entryX=1;entryY=0.5;entryDx=0;entryDy=0;" parent="1" source="wxS6ppPWxhe0wEHpGkt0-4" target="wxS6ppPWxhe0wEHpGkt0-3" edge="1">
          <mxGeometry width="100" height="100" relative="1" as="geometry">
            <mxPoint x="170" y="370" as="sourcePoint" />
            <mxPoint x="270" y="270" as="targetPoint" />
          </mxGeometry>
        </mxCell>
        <mxCell id="YI6iL46qrL_J55TheeWR-2" value="has" style="edgeLabel;html=1;align=center;verticalAlign=middle;resizable=0;points=[];" vertex="1" connectable="0" parent="wxS6ppPWxhe0wEHpGkt0-68">
          <mxGeometry x="0.0167" y="1" relative="1" as="geometry">
            <mxPoint as="offset" />
          </mxGeometry>
        </mxCell>
        <mxCell id="wxS6ppPWxhe0wEHpGkt0-69" value="" style="edgeStyle=entityRelationEdgeStyle;fontSize=12;html=1;endArrow=ERzeroToMany;startArrow=ERmandOne;rounded=0;exitX=1;exitY=1;exitDx=0;exitDy=0;entryX=1;entryY=0.5;entryDx=0;entryDy=0;" parent="1" source="wxS6ppPWxhe0wEHpGkt0-3" target="wxS6ppPWxhe0wEHpGkt0-2" edge="1">
          <mxGeometry width="100" height="100" relative="1" as="geometry">
            <mxPoint x="170" y="370" as="sourcePoint" />
            <mxPoint x="440" y="330" as="targetPoint" />
          </mxGeometry>
        </mxCell>
        <mxCell id="YI6iL46qrL_J55TheeWR-3" value="generates" style="edgeLabel;html=1;align=center;verticalAlign=middle;resizable=0;points=[];" vertex="1" connectable="0" parent="wxS6ppPWxhe0wEHpGkt0-69">
          <mxGeometry x="-0.3966" relative="1" as="geometry">
            <mxPoint as="offset" />
          </mxGeometry>
        </mxCell>
        <mxCell id="wxS6ppPWxhe0wEHpGkt0-70" value="" style="edgeStyle=entityRelationEdgeStyle;fontSize=12;html=1;endArrow=ERzeroToMany;startArrow=ERmandOne;rounded=0;exitX=1;exitY=0.5;exitDx=0;exitDy=0;entryX=0;entryY=0.5;entryDx=0;entryDy=0;" parent="1" source="wxS6ppPWxhe0wEHpGkt0-6" target="wxS6ppPWxhe0wEHpGkt0-2" edge="1">
          <mxGeometry width="100" height="100" relative="1" as="geometry">
            <mxPoint x="170" y="370" as="sourcePoint" />
            <mxPoint x="240" y="510" as="targetPoint" />
          </mxGeometry>
        </mxCell>
        <mxCell id="YI6iL46qrL_J55TheeWR-4" value="has" style="edgeLabel;html=1;align=center;verticalAlign=middle;resizable=0;points=[];" vertex="1" connectable="0" parent="wxS6ppPWxhe0wEHpGkt0-70">
          <mxGeometry x="-0.0263" y="1" relative="1" as="geometry">
            <mxPoint as="offset" />
          </mxGeometry>
        </mxCell>
      </root>
    </mxGraphModel>
  </diagram>
</mxfile>
